<svg version="1.1" id="Layer_1" xmlns="http://www.w3.org/2000/svg" xmlns:xlink="http://www.w3.org/1999/xlink" x="0px" y="0px"
	 width="100%" viewBox="0 0 512 512" enable-background="new 0 0 512 512" xml:space="preserve">
<path fill="#FEFEFE" opacity="1.000000" stroke="none" 
	d="
M342.000000,513.000000 
	C228.027695,513.000000 114.555382,513.000000 1.041535,513.000000 
	C1.041535,342.402679 1.041535,171.805328 1.041535,1.103989 
	C171.555649,1.103989 342.111389,1.103989 512.833557,1.103989 
	C512.833557,171.666534 512.833557,342.333252 512.833557,513.000000 
	C456.138641,513.000000 399.319305,513.000000 342.000000,513.000000 
M260.742157,322.257141 
	C283.662231,319.632416 297.149292,307.336060 301.019012,284.768188 
	C302.333862,277.100098 302.901276,269.215088 302.915894,261.427521 
	C302.997620,217.940628 302.800690,174.453247 302.711456,130.965988 
	C302.698792,124.801559 302.762573,118.637001 302.775116,112.472473 
	C302.781647,109.263527 301.384583,107.573555 297.946564,107.569824 
	C291.456024,107.562775 284.965118,107.375381 278.475433,107.218079 
	C271.349579,107.045372 270.826294,107.525406 270.829407,114.761345 
	C270.851776,166.246857 270.895691,217.732361 270.870117,269.217834 
	C270.868561,272.362671 270.553711,275.546417 270.003479,278.644318 
	C268.541687,286.874176 262.389526,291.949860 254.356400,291.811493 
	C244.123596,291.635223 238.096710,286.746246 237.112122,277.497559 
	C236.619370,272.868896 236.384232,268.190063 236.391541,263.534485 
	C236.469360,214.048538 236.624588,164.562714 236.743820,115.076828 
	C236.761841,107.599342 236.525421,107.572853 229.244644,107.752411 
	C222.921295,107.908363 216.578720,107.779869 210.259521,107.471794 
	C203.672241,107.150650 202.834961,107.821602 202.842957,114.571396 
	C202.901932,164.389999 202.915039,214.208710 203.042236,264.027100 
	C203.058380,270.344971 203.239899,276.715546 204.060242,282.967804 
	C206.085815,298.405579 213.193298,310.633209 227.693253,317.632629 
	C237.894485,322.557037 248.753891,323.407318 260.742157,322.257141 
M316.751251,242.509949 
	C316.625061,254.503830 316.272339,266.500763 316.434540,278.490753 
	C316.606781,291.227539 318.168579,303.765900 325.093994,314.917511 
	C326.764618,317.607666 328.971161,319.965057 330.931244,322.475464 
	C331.373169,322.282166 331.815094,322.088898 332.256989,321.895599 
	C332.414398,320.315125 332.703064,318.735077 332.708252,317.154114 
	C332.746582,305.491852 332.728119,293.829376 332.727966,282.166992 
	C332.727722,261.841095 332.752350,241.515167 332.712524,221.189346 
	C332.700867,215.251007 331.603668,214.226181 325.719940,214.163773 
	C323.344757,214.138580 320.969086,214.159607 317.814758,214.159607 
	C318.927216,212.660263 319.251862,212.082687 319.704041,211.633514 
	C335.424133,196.017548 351.193329,180.450699 366.855835,164.777283 
	C370.039154,161.591751 372.423187,161.872147 375.546112,165.006210 
	C390.597748,180.111526 405.830353,195.036469 420.978943,210.045364 
	C421.981750,211.038895 422.820129,212.198425 424.223694,213.858948 
	C421.529724,213.982330 419.600342,214.130035 417.669739,214.148544 
	C410.342499,214.218796 409.971527,214.562317 409.971161,221.702072 
	C409.969513,253.357162 409.970490,285.012238 409.970551,316.667328 
	C409.970551,318.405396 409.970581,320.143433 409.970581,321.881500 
	C410.391876,322.062286 410.813171,322.243103 411.234436,322.423889 
	C412.302643,321.390594 413.513824,320.468475 414.416931,319.306824 
	C423.572021,307.530396 425.847595,293.671814 425.951202,279.342133 
	C426.145203,252.520187 426.151886,225.695343 425.998474,198.873047 
	C425.907074,182.889526 425.958344,166.867905 424.870605,150.936798 
	C423.516479,131.103668 413.589691,116.646141 394.472290,109.864380 
	C378.750183,104.287094 362.676056,104.523888 347.013458,110.323181 
	C334.399200,114.993790 325.039276,123.606163 320.776031,136.577499 
	C318.726013,142.814926 317.273560,149.542282 317.166901,156.074188 
	C316.701813,184.553146 316.830261,213.041809 316.751251,242.509949 
M122.135307,214.499954 
	C122.135307,235.156021 122.135178,255.812073 122.135353,276.468140 
	C122.135460,289.794647 122.185478,303.121490 122.105278,316.447510 
	C122.082153,320.290466 123.291016,322.333405 127.571556,322.226562 
	C135.562469,322.027161 143.564758,322.046906 151.556488,322.230042 
	C154.878204,322.306213 156.068893,320.825623 156.115158,317.824127 
	C156.145966,315.826172 156.239578,313.828583 156.239960,311.830841 
	C156.247574,271.351562 156.254929,230.872269 156.240952,190.392975 
	C156.235947,175.900894 156.181992,161.408813 156.136719,146.916779 
	C156.109940,138.347336 156.694260,137.798477 165.087616,137.911591 
	C172.413727,138.010330 179.743088,137.900131 187.068130,138.036301 
	C190.433411,138.098862 191.968842,136.778442 191.925674,133.344467 
	C191.835693,126.182693 191.825516,119.017883 191.931168,111.856514 
	C191.986435,108.110420 190.136963,106.858673 186.667374,106.975525 
	C182.173553,107.126854 177.673935,107.159645 173.176941,107.153366 
	C146.359329,107.115913 119.541031,107.140251 92.724892,106.914322 
	C88.072044,106.875130 86.590363,108.372047 86.840431,112.994972 
	C87.199699,119.636795 86.995720,126.318153 86.812508,132.976608 
	C86.713623,136.570541 88.006180,138.129013 91.728333,138.056229 
	C99.720413,137.899948 107.717674,137.983017 115.712677,138.009338 
	C121.708458,138.029083 122.504379,138.937698 122.469612,145.039124 
	C122.339592,167.859283 122.243889,190.679657 122.135307,214.499954 
M360.810364,246.159958 
	C356.686066,246.001495 353.106537,246.232971 353.140045,251.944122 
	C353.249420,270.595734 353.249664,289.249329 353.085419,307.900360 
	C353.045959,312.377747 354.969269,313.639557 359.096680,313.534576 
	C367.582367,313.318848 376.079193,313.256104 384.564575,313.442902 
	C388.369476,313.526672 389.507019,311.936951 389.490387,308.429382 
	C389.400421,289.447296 389.350952,270.464355 389.451691,251.482574 
	C389.472107,247.643723 388.006042,246.080887 384.227722,246.131363 
	C376.733917,246.231491 369.237793,246.160339 360.810364,246.159958 
M87.610588,401.322754 
	C87.610588,391.072052 87.610588,380.821381 87.610588,370.570679 
	C87.959473,370.562958 88.308365,370.555237 88.657249,370.547485 
	C90.745888,382.927490 92.834526,395.307495 94.905052,407.580139 
	C98.501556,407.580139 101.607506,407.580139 104.731560,407.580139 
	C106.624855,395.928497 108.475487,384.539459 110.326111,373.150421 
	C110.768173,373.198700 111.210236,373.246979 111.652298,373.295258 
	C111.652298,384.711945 111.652298,396.128601 111.652298,407.667480 
	C115.075455,407.667480 118.019302,407.667480 121.124687,407.667480 
	C121.124687,385.775909 121.124687,364.072601 121.124687,342.315460 
	C116.308708,342.315460 111.843323,342.315460 107.183334,342.315460 
	C105.034538,355.962097 102.906166,369.479065 100.777786,382.996033 
	C100.334160,382.947052 99.890526,382.898071 99.446892,382.849091 
	C97.216171,369.348145 94.985443,355.847168 92.769371,342.434875 
	C87.684998,342.434875 83.100777,342.434875 78.372719,342.434875 
	C78.372719,364.279388 78.372719,385.834076 78.372719,407.517883 
	C81.502502,407.517883 84.369789,407.517883 87.610748,407.517883 
	C87.610748,405.545074 87.610748,403.905792 87.610588,401.322754 
M140.017929,375.570190 
	C141.802521,386.199097 143.587112,396.827972 145.400055,407.625671 
	C148.778763,407.625671 151.863632,407.625671 155.297836,407.625671 
	C157.328247,394.471344 159.334076,381.476288 161.339905,368.481201 
	C161.654297,368.506409 161.968674,368.531586 162.283051,368.556763 
	C162.283051,381.494659 162.283051,394.432556 162.283051,407.477448 
	C165.773087,407.477448 168.799667,407.477448 171.631653,407.477448 
	C171.631653,385.524231 171.631653,363.946198 171.631653,342.148865 
	C167.961975,342.148865 164.631119,342.342407 161.334015,342.091797 
	C158.324738,341.863129 157.342194,343.023132 156.964737,345.934204 
	C155.723846,355.504395 154.205338,365.039185 152.739105,374.579193 
	C152.263809,377.671814 151.621155,380.738678 151.055054,383.817322 
	C150.751404,383.780640 150.447754,383.743927 150.144089,383.707245 
	C147.841568,369.860382 145.539047,356.013550 143.290558,342.491699 
	C138.062653,342.491699 133.644165,342.491699 129.340576,342.491699 
	C129.340576,364.420227 129.340576,386.004425 129.340576,407.500610 
	C132.398926,407.500610 135.119247,407.500610 138.208435,407.500610 
	C138.208435,394.074036 138.208435,380.994965 138.208435,367.915863 
	C138.373322,367.911652 138.538223,367.907440 138.703110,367.903259 
	C139.115738,370.172485 139.528351,372.441742 140.017929,375.570190 
M245.797836,402.070374 
	C250.688446,392.609955 248.927216,378.752136 241.810043,372.484650 
	C249.260727,366.878815 247.608414,358.996796 246.593292,351.520691 
	C245.998184,347.137939 242.944489,343.707642 238.431168,343.130646 
	C231.274719,342.215851 224.022476,342.050323 216.594482,341.553314 
	C216.594482,364.168182 216.594482,385.849548 216.594482,407.483276 
	C223.062363,407.483276 229.260376,408.035370 235.291534,407.270966 
	C238.768860,406.830200 241.976532,404.261902 245.797836,402.070374 
M381.239014,407.401489 
	C384.599854,407.561493 387.960693,407.721497 390.871429,407.860107 
	C390.871429,401.630768 391.194977,396.118866 390.781158,390.662842 
	C390.360626,385.118286 390.487671,379.138245 385.209442,375.934784 
	C386.882416,373.309509 389.380859,371.084015 389.661591,368.607178 
	C390.312439,362.864868 390.379852,356.947205 389.746185,351.204041 
	C389.262085,346.816498 386.126068,343.502075 381.492767,343.003479 
	C374.447235,342.245300 367.341858,342.043304 360.144165,341.597778 
	C360.144165,364.113861 360.144165,385.821960 360.144165,407.588379 
	C363.552338,407.588379 366.633362,407.588379 370.140503,407.588379 
	C370.140503,398.744324 370.140503,390.147430 370.140503,381.609222 
	C377.950562,380.726318 379.856445,382.442291 380.047516,389.686920 
	C380.196198,395.324890 380.592377,400.956299 381.239014,407.401489 
M178.710800,391.376526 
	C178.263596,403.762543 185.697220,408.522430 194.260574,408.398224 
	C205.021545,408.242157 209.782990,403.042175 209.948303,391.009949 
	C210.103729,379.697906 210.052521,368.380737 209.915924,357.067963 
	C209.849045,351.529663 208.345093,346.463593 203.071854,343.526489 
	C193.376373,338.126221 178.232468,341.665405 178.669632,357.474792 
	C178.973068,368.447876 178.714691,379.436432 178.710800,391.376526 
M348.846680,367.606079 
	C347.445892,359.137146 346.045135,350.668213 344.652191,342.246613 
	C339.337799,342.246613 334.401031,342.246613 329.330780,342.246613 
	C325.838623,364.097595 322.383209,385.718628 318.898651,407.521942 
	C322.344543,407.521942 325.409332,407.521942 328.522644,407.521942 
	C329.215515,403.504120 329.855621,399.792145 330.486572,396.133362 
	C334.770844,396.133362 338.698944,396.133362 342.686066,396.133362 
	C343.358063,400.109528 343.985840,403.824097 344.626434,407.614502 
	C348.240265,407.614502 351.500854,407.614502 355.102112,407.614502 
	C353.021698,394.379669 350.985535,381.426300 348.846680,367.606079 
M397.093933,389.499146 
	C397.093933,395.572601 397.093933,401.646088 397.093933,407.708618 
	C406.870422,407.708618 415.825836,407.708618 424.969055,407.708618 
	C424.969055,404.477722 424.969055,401.405762 424.969055,398.033997 
	C419.221313,398.033997 413.776093,398.033997 408.244080,398.033997 
	C408.244080,391.540985 408.244080,385.355988 408.244080,378.859924 
	C412.857513,378.859924 417.130035,378.859924 421.512329,378.859924 
	C421.512329,375.651062 421.512329,372.768829 421.512329,369.526489 
	C416.952759,369.526489 412.679565,369.526489 408.155334,369.526489 
	C408.155334,363.419983 408.155334,357.678528 408.155334,351.385803 
	C413.881592,351.385803 419.421417,351.385803 424.968323,351.385803 
	C424.968323,348.070007 424.968323,345.308990 424.968323,342.409454 
	C415.647430,342.409454 406.587128,342.409454 397.093933,342.409454 
	C397.093933,357.953186 397.093933,373.226288 397.093933,389.499146 
M284.510895,407.869263 
	C289.291321,407.869263 294.071747,407.869263 298.899963,407.869263 
	C298.899963,404.364868 298.899963,401.325836 298.899963,397.867004 
	C293.259644,397.867004 287.998993,397.867004 282.439453,397.867004 
	C282.439453,379.161804 282.439453,360.885254 282.439453,342.407837 
	C278.887451,342.407837 275.665771,342.407837 272.360016,342.407837 
	C272.360016,364.240784 272.360016,385.795258 272.360016,407.869263 
	C276.279572,407.869263 279.901611,407.869263 284.510895,407.869263 
M89.211044,284.500122 
	C89.211044,275.059448 89.211044,265.618774 89.211044,256.121277 
	C85.472115,256.121277 82.243835,256.121277 78.940384,256.121277 
	C78.940384,278.170471 78.940384,299.928497 78.940384,321.828064 
	C88.157516,321.828064 97.183220,321.828064 106.258560,321.828064 
	C106.258560,318.713074 106.258560,315.947083 106.258560,312.761292 
	C100.577957,312.761292 95.146973,312.761292 89.211044,312.761292 
	C89.211044,303.397583 89.211044,294.448883 89.211044,284.500122 
M254.284866,380.499878 
	C254.284866,389.571533 254.284866,398.643188 254.284866,407.522308 
	C258.242554,407.522308 261.463165,407.522308 264.596680,407.522308 
	C264.596680,385.580902 264.596680,364.043396 264.596680,342.395355 
	C261.104736,342.395355 257.893280,342.395355 254.284866,342.395355 
	C254.284866,354.968842 254.284866,367.234314 254.284866,380.499878 
M314.233246,377.500122 
	C314.233246,365.777161 314.233246,354.054169 314.233246,342.408875 
	C310.411438,342.408875 307.338318,342.408875 304.245056,342.408875 
	C304.245056,364.245361 304.245056,385.790039 304.245056,407.515015 
	C307.568390,407.515015 310.642365,407.515015 314.233246,407.515015 
	C314.233246,397.697174 314.233246,388.098663 314.233246,377.500122 
M60.773010,406.188141 
	C64.009453,406.896332 67.245895,407.604523 70.763077,408.374146 
	C70.763077,385.617554 70.763077,364.060791 70.763077,342.317291 
	C67.444481,342.317291 64.365791,342.317291 60.747601,342.317291 
	C60.747601,363.422058 60.747601,384.332214 60.773010,406.188141 
M60.943661,321.413361 
	C64.227135,321.792877 67.510605,322.172424 70.920685,322.566559 
	C70.920685,299.879120 70.920685,278.012268 70.920685,256.200775 
	C67.426498,256.200775 64.220657,256.200775 60.885265,256.200775 
	C60.885265,277.842682 60.885265,299.132233 60.943661,321.413361 
z"/>
<path fill="#030303" opacity="1.000000" stroke="none" 
	d="
M260.301941,322.334167 
	C248.753891,323.407318 237.894485,322.557037 227.693253,317.632629 
	C213.193298,310.633209 206.085815,298.405579 204.060242,282.967804 
	C203.239899,276.715546 203.058380,270.344971 203.042236,264.027100 
	C202.915039,214.208710 202.901932,164.389999 202.842957,114.571396 
	C202.834961,107.821602 203.672241,107.150650 210.259521,107.471794 
	C216.578720,107.779869 222.921295,107.908363 229.244644,107.752411 
	C236.525421,107.572853 236.761841,107.599342 236.743820,115.076828 
	C236.624588,164.562714 236.469360,214.048538 236.391541,263.534485 
	C236.384232,268.190063 236.619370,272.868896 237.112122,277.497559 
	C238.096710,286.746246 244.123596,291.635223 254.356400,291.811493 
	C262.389526,291.949860 268.541687,286.874176 270.003479,278.644318 
	C270.553711,275.546417 270.868561,272.362671 270.870117,269.217834 
	C270.895691,217.732361 270.851776,166.246857 270.829407,114.761345 
	C270.826294,107.525406 271.349579,107.045372 278.475433,107.218079 
	C284.965118,107.375381 291.456024,107.562775 297.946564,107.569824 
	C301.384583,107.573555 302.781647,109.263527 302.775116,112.472473 
	C302.762573,118.637001 302.698792,124.801559 302.711456,130.965988 
	C302.800690,174.453247 302.997620,217.940628 302.915894,261.427521 
	C302.901276,269.215088 302.333862,277.100098 301.019012,284.768188 
	C297.149292,307.336060 283.662231,319.632416 260.301941,322.334167 
z"/>
<path fill="#040404" opacity="1.000000" stroke="none" 
	d="
M316.747223,242.018448 
	C316.830261,213.041809 316.701813,184.553146 317.166901,156.074188 
	C317.273560,149.542282 318.726013,142.814926 320.776031,136.577499 
	C325.039276,123.606163 334.399200,114.993790 347.013458,110.323181 
	C362.676056,104.523888 378.750183,104.287094 394.472290,109.864380 
	C413.589691,116.646141 423.516479,131.103668 424.870605,150.936798 
	C425.958344,166.867905 425.907074,182.889526 425.998474,198.873047 
	C426.151886,225.695343 426.145203,252.520187 425.951202,279.342133 
	C425.847595,293.671814 423.572021,307.530396 414.416931,319.306824 
	C413.513824,320.468475 412.302643,321.390594 411.234436,322.423889 
	C410.813171,322.243103 410.391876,322.062286 409.970581,321.881500 
	C409.970581,320.143433 409.970551,318.405396 409.970551,316.667328 
	C409.970490,285.012238 409.969513,253.357162 409.971161,221.702072 
	C409.971527,214.562317 410.342499,214.218796 417.669739,214.148544 
	C419.600342,214.130035 421.529724,213.982330 424.223694,213.858948 
	C422.820129,212.198425 421.981750,211.038895 420.978943,210.045364 
	C405.830353,195.036469 390.597748,180.111526 375.546112,165.006210 
	C372.423187,161.872147 370.039154,161.591751 366.855835,164.777283 
	C351.193329,180.450699 335.424133,196.017548 319.704041,211.633514 
	C319.251862,212.082687 318.927216,212.660263 317.814758,214.159607 
	C320.969086,214.159607 323.344757,214.138580 325.719940,214.163773 
	C331.603668,214.226181 332.700867,215.251007 332.712524,221.189346 
	C332.752350,241.515167 332.727722,261.841095 332.727966,282.166992 
	C332.728119,293.829376 332.746582,305.491852 332.708252,317.154114 
	C332.703064,318.735077 332.414398,320.315125 332.256989,321.895599 
	C331.815094,322.088898 331.373169,322.282166 330.931244,322.475464 
	C328.971161,319.965057 326.764618,317.607666 325.093994,314.917511 
	C318.168579,303.765900 316.606781,291.227539 316.434540,278.490753 
	C316.272339,266.500763 316.625061,254.503830 316.747223,242.018448 
z"/>
<path fill="#030303" opacity="1.000000" stroke="none" 
	d="
M122.135315,213.999939 
	C122.243889,190.679657 122.339592,167.859283 122.469612,145.039124 
	C122.504379,138.937698 121.708458,138.029083 115.712677,138.009338 
	C107.717674,137.983017 99.720413,137.899948 91.728333,138.056229 
	C88.006180,138.129013 86.713623,136.570541 86.812508,132.976608 
	C86.995720,126.318153 87.199699,119.636795 86.840431,112.994972 
	C86.590363,108.372047 88.072044,106.875130 92.724892,106.914322 
	C119.541031,107.140251 146.359329,107.115913 173.176941,107.153366 
	C177.673935,107.159645 182.173553,107.126854 186.667374,106.975525 
	C190.136963,106.858673 191.986435,108.110420 191.931168,111.856514 
	C191.825516,119.017883 191.835693,126.182693 191.925674,133.344467 
	C191.968842,136.778442 190.433411,138.098862 187.068130,138.036301 
	C179.743088,137.900131 172.413727,138.010330 165.087616,137.911591 
	C156.694260,137.798477 156.109940,138.347336 156.136719,146.916779 
	C156.181992,161.408813 156.235947,175.900894 156.240952,190.392975 
	C156.254929,230.872269 156.247574,271.351562 156.239960,311.830841 
	C156.239578,313.828583 156.145966,315.826172 156.115158,317.824127 
	C156.068893,320.825623 154.878204,322.306213 151.556488,322.230042 
	C143.564758,322.046906 135.562469,322.027161 127.571556,322.226562 
	C123.291016,322.333405 122.082153,320.290466 122.105278,316.447510 
	C122.185478,303.121490 122.135460,289.794647 122.135353,276.468140 
	C122.135178,255.812073 122.135307,235.156021 122.135315,213.999939 
z"/>
<path fill="#050505" opacity="1.000000" stroke="none" 
	d="
M361.276489,246.159958 
	C369.237793,246.160339 376.733917,246.231491 384.227722,246.131363 
	C388.006042,246.080887 389.472107,247.643723 389.451691,251.482574 
	C389.350952,270.464355 389.400421,289.447296 389.490387,308.429382 
	C389.507019,311.936951 388.369476,313.526672 384.564575,313.442902 
	C376.079193,313.256104 367.582367,313.318848 359.096680,313.534576 
	C354.969269,313.639557 353.045959,312.377747 353.085419,307.900360 
	C353.249664,289.249329 353.249420,270.595734 353.140045,251.944122 
	C353.106537,246.232971 356.686066,246.001495 361.276489,246.159958 
z"/>
<path fill="#0C0C0C" opacity="1.000000" stroke="none" 
	d="
M87.610672,401.794647 
	C87.610748,403.905792 87.610748,405.545074 87.610748,407.517883 
	C84.369789,407.517883 81.502502,407.517883 78.372719,407.517883 
	C78.372719,385.834076 78.372719,364.279388 78.372719,342.434875 
	C83.100777,342.434875 87.684998,342.434875 92.769371,342.434875 
	C94.985443,355.847168 97.216171,369.348145 99.446892,382.849091 
	C99.890526,382.898071 100.334160,382.947052 100.777786,382.996033 
	C102.906166,369.479065 105.034538,355.962097 107.183334,342.315460 
	C111.843323,342.315460 116.308708,342.315460 121.124687,342.315460 
	C121.124687,364.072601 121.124687,385.775909 121.124687,407.667480 
	C118.019302,407.667480 115.075455,407.667480 111.652298,407.667480 
	C111.652298,396.128601 111.652298,384.711945 111.652298,373.295258 
	C111.210236,373.246979 110.768173,373.198700 110.326111,373.150421 
	C108.475487,384.539459 106.624855,395.928497 104.731560,407.580139 
	C101.607506,407.580139 98.501556,407.580139 94.905052,407.580139 
	C92.834526,395.307495 90.745888,382.927490 88.657249,370.547485 
	C88.308365,370.555237 87.959473,370.562958 87.610588,370.570679 
	C87.610588,380.821381 87.610588,391.072052 87.610672,401.794647 
z"/>
<path fill="#0A0A0A" opacity="1.000000" stroke="none" 
	d="
M139.979446,375.140564 
	C139.528351,372.441742 139.115738,370.172485 138.703110,367.903259 
	C138.538223,367.907440 138.373322,367.911652 138.208435,367.915863 
	C138.208435,380.994965 138.208435,394.074036 138.208435,407.500610 
	C135.119247,407.500610 132.398926,407.500610 129.340576,407.500610 
	C129.340576,386.004425 129.340576,364.420227 129.340576,342.491699 
	C133.644165,342.491699 138.062653,342.491699 143.290558,342.491699 
	C145.539047,356.013550 147.841568,369.860382 150.144089,383.707245 
	C150.447754,383.743927 150.751404,383.780640 151.055054,383.817322 
	C151.621155,380.738678 152.263809,377.671814 152.739105,374.579193 
	C154.205338,365.039185 155.723846,355.504395 156.964737,345.934204 
	C157.342194,343.023132 158.324738,341.863129 161.334015,342.091797 
	C164.631119,342.342407 167.961975,342.148865 171.631653,342.148865 
	C171.631653,363.946198 171.631653,385.524231 171.631653,407.477448 
	C168.799667,407.477448 165.773087,407.477448 162.283051,407.477448 
	C162.283051,394.432556 162.283051,381.494659 162.283051,368.556763 
	C161.968674,368.531586 161.654297,368.506409 161.339905,368.481201 
	C159.334076,381.476288 157.328247,394.471344 155.297836,407.625671 
	C151.863632,407.625671 148.778763,407.625671 145.400055,407.625671 
	C143.587112,396.827972 141.802521,386.199097 139.979446,375.140564 
z"/>
<path fill="#0A0A0A" opacity="1.000000" stroke="none" 
	d="
M245.551712,402.360809 
	C241.976532,404.261902 238.768860,406.830200 235.291534,407.270966 
	C229.260376,408.035370 223.062363,407.483276 216.594482,407.483276 
	C216.594482,385.849548 216.594482,364.168182 216.594482,341.553314 
	C224.022476,342.050323 231.274719,342.215851 238.431168,343.130646 
	C242.944489,343.707642 245.998184,347.137939 246.593292,351.520691 
	C247.608414,358.996796 249.260727,366.878815 241.810043,372.484650 
	C248.927216,378.752136 250.688446,392.609955 245.551712,402.360809 
M226.972610,392.426025 
	C226.972610,394.216553 226.972610,396.007050 226.972610,399.168152 
	C230.767578,397.955841 236.085266,397.532959 236.497635,395.883636 
	C237.686264,391.129639 237.708481,385.667969 236.468384,380.935028 
	C235.996399,379.133698 230.839951,378.559753 226.972610,377.109131 
	C226.972610,382.890961 226.972610,387.170746 226.972610,392.426025 
M236.404617,355.460052 
	C234.669495,350.355316 230.796738,351.617554 227.242950,351.831848 
	C227.242950,357.772766 227.242950,363.203918 227.242950,368.612457 
	C235.053314,369.060120 236.880127,367.445618 236.921127,360.226685 
	C236.928635,358.905457 236.747253,357.583160 236.404617,355.460052 
z"/>
<path fill="#080808" opacity="1.000000" stroke="none" 
	d="
M381.058807,406.996063 
	C380.592377,400.956299 380.196198,395.324890 380.047516,389.686920 
	C379.856445,382.442291 377.950562,380.726318 370.140503,381.609222 
	C370.140503,390.147430 370.140503,398.744324 370.140503,407.588379 
	C366.633362,407.588379 363.552338,407.588379 360.144165,407.588379 
	C360.144165,385.821960 360.144165,364.113861 360.144165,341.597778 
	C367.341858,342.043304 374.447235,342.245300 381.492767,343.003479 
	C386.126068,343.502075 389.262085,346.816498 389.746185,351.204041 
	C390.379852,356.947205 390.312439,362.864868 389.661591,368.607178 
	C389.380859,371.084015 386.882416,373.309509 385.209442,375.934784 
	C390.487671,379.138245 390.360626,385.118286 390.781158,390.662842 
	C391.194977,396.118866 390.871429,401.630768 390.871429,407.860107 
	C387.960693,407.721497 384.599854,407.561493 381.058807,406.996063 
M370.121948,370.102539 
	C377.111359,372.552734 379.793854,370.887115 379.948059,363.981873 
	C379.984894,362.331970 379.985870,360.680237 379.958069,359.030121 
	C379.838837,351.947815 377.370056,350.260223 370.073700,352.375854 
	C370.073700,357.947937 370.073700,363.557098 370.121948,370.102539 
z"/>
<path fill="#060606" opacity="1.000000" stroke="none" 
	d="
M178.709076,390.897308 
	C178.714691,379.436432 178.973068,368.447876 178.669632,357.474792 
	C178.232468,341.665405 193.376373,338.126221 203.071854,343.526489 
	C208.345093,346.463593 209.849045,351.529663 209.915924,357.067963 
	C210.052521,368.380737 210.103729,379.697906 209.948303,391.009949 
	C209.782990,403.042175 205.021545,408.242157 194.260574,408.398224 
	C185.697220,408.522430 178.263596,403.762543 178.709076,390.897308 
M189.027130,360.694214 
	C189.024567,370.827789 189.007874,380.961395 189.026993,391.094940 
	C189.033783,394.698669 189.134293,398.688904 193.924408,398.838165 
	C198.939301,398.994446 199.447617,394.961945 199.511215,391.136230 
	C199.607895,385.323273 199.615601,379.507721 199.574844,373.693909 
	C199.532974,367.719116 199.482147,361.741302 199.249176,355.772095 
	C199.125351,352.599030 197.006241,350.480103 194.055466,351.223114 
	C192.157593,351.700989 190.519226,354.015137 189.249786,355.843201 
	C188.615051,356.757294 189.067398,358.426239 189.027130,360.694214 
z"/>
<path fill="#090909" opacity="1.000000" stroke="none" 
	d="
M348.898010,368.039520 
	C350.985535,381.426300 353.021698,394.379669 355.102112,407.614502 
	C351.500854,407.614502 348.240265,407.614502 344.626434,407.614502 
	C343.985840,403.824097 343.358063,400.109528 342.686066,396.133362 
	C338.698944,396.133362 334.770844,396.133362 330.486572,396.133362 
	C329.855621,399.792145 329.215515,403.504120 328.522644,407.521942 
	C325.409332,407.521942 322.344543,407.521942 318.898651,407.521942 
	C322.383209,385.718628 325.838623,364.097595 329.330780,342.246613 
	C334.401031,342.246613 339.337799,342.246613 344.652191,342.246613 
	C346.045135,350.668213 347.445892,359.137146 348.898010,368.039520 
M332.854828,386.802124 
	C335.484253,386.802124 338.113647,386.802124 341.363342,386.802124 
	C339.802490,376.450836 338.354950,366.851044 336.907440,357.251251 
	C336.567810,357.249237 336.228180,357.247223 335.888580,357.245178 
	C334.630554,366.928192 333.372559,376.611176 332.854828,386.802124 
z"/>
<path fill="#0F1010" opacity="1.000000" stroke="none" 
	d="
M397.093933,388.999268 
	C397.093933,373.226288 397.093933,357.953186 397.093933,342.409454 
	C406.587128,342.409454 415.647430,342.409454 424.968323,342.409454 
	C424.968323,345.308990 424.968323,348.070007 424.968323,351.385803 
	C419.421417,351.385803 413.881592,351.385803 408.155334,351.385803 
	C408.155334,357.678528 408.155334,363.419983 408.155334,369.526489 
	C412.679565,369.526489 416.952759,369.526489 421.512329,369.526489 
	C421.512329,372.768829 421.512329,375.651062 421.512329,378.859924 
	C417.130035,378.859924 412.857513,378.859924 408.244080,378.859924 
	C408.244080,385.355988 408.244080,391.540985 408.244080,398.033997 
	C413.776093,398.033997 419.221313,398.033997 424.969055,398.033997 
	C424.969055,401.405762 424.969055,404.477722 424.969055,407.708618 
	C415.825836,407.708618 406.870422,407.708618 397.093933,407.708618 
	C397.093933,401.646088 397.093933,395.572601 397.093933,388.999268 
z"/>
<path fill="#101111" opacity="1.000000" stroke="none" 
	d="
M284.017273,407.869263 
	C279.901611,407.869263 276.279572,407.869263 272.360016,407.869263 
	C272.360016,385.795258 272.360016,364.240784 272.360016,342.407837 
	C275.665771,342.407837 278.887451,342.407837 282.439453,342.407837 
	C282.439453,360.885254 282.439453,379.161804 282.439453,397.867004 
	C287.998993,397.867004 293.259644,397.867004 298.899963,397.867004 
	C298.899963,401.325836 298.899963,404.364868 298.899963,407.869263 
	C294.071747,407.869263 289.291321,407.869263 284.017273,407.869263 
z"/>
<path fill="#060505" opacity="1.000000" stroke="none" 
	d="
M89.211044,285.000153 
	C89.211044,294.448883 89.211044,303.397583 89.211044,312.761292 
	C95.146973,312.761292 100.577957,312.761292 106.258560,312.761292 
	C106.258560,315.947083 106.258560,318.713074 106.258560,321.828064 
	C97.183220,321.828064 88.157516,321.828064 78.940384,321.828064 
	C78.940384,299.928497 78.940384,278.170471 78.940384,256.121277 
	C82.243835,256.121277 85.472115,256.121277 89.211044,256.121277 
	C89.211044,265.618774 89.211044,275.059448 89.211044,285.000153 
z"/>
<path fill="#141414" opacity="1.000000" stroke="none" 
	d="
M254.284866,379.999847 
	C254.284866,367.234314 254.284866,354.968842 254.284866,342.395355 
	C257.893280,342.395355 261.104736,342.395355 264.596680,342.395355 
	C264.596680,364.043396 264.596680,385.580902 264.596680,407.522308 
	C261.463165,407.522308 258.242554,407.522308 254.284866,407.522308 
	C254.284866,398.643188 254.284866,389.571533 254.284866,379.999847 
z"/>
<path fill="#060606" opacity="1.000000" stroke="none" 
	d="
M314.233246,378.000153 
	C314.233246,388.098663 314.233246,397.697174 314.233246,407.515015 
	C310.642365,407.515015 307.568390,407.515015 304.245056,407.515015 
	C304.245056,385.790039 304.245056,364.245361 304.245056,342.408875 
	C307.338318,342.408875 310.411438,342.408875 314.233246,342.408875 
	C314.233246,354.054169 314.233246,365.777161 314.233246,378.000153 
z"/>
<path fill="#060606" opacity="1.000000" stroke="none" 
	d="
M60.760307,405.715271 
	C60.747601,384.332214 60.747601,363.422058 60.747601,342.317291 
	C64.365791,342.317291 67.444481,342.317291 70.763077,342.317291 
	C70.763077,364.060791 70.763077,385.617554 70.763077,408.374146 
	C67.245895,407.604523 64.009453,406.896332 60.760307,405.715271 
z"/>
<path fill="#000000" opacity="1.000000" stroke="none" 
	d="
M60.914463,320.917572 
	C60.885265,299.132233 60.885265,277.842682 60.885265,256.200775 
	C64.220657,256.200775 67.426498,256.200775 70.920685,256.200775 
	C70.920685,278.012268 70.920685,299.879120 70.920685,322.566559 
	C67.510605,322.172424 64.227135,321.792877 60.914463,320.917572 
z"/>
<path fill="#F6F6F6" opacity="1.000000" stroke="none" 
	d="
M226.972610,391.938263 
	C226.972610,387.170746 226.972610,382.890961 226.972610,377.109131 
	C230.839951,378.559753 235.996399,379.133698 236.468384,380.935028 
	C237.708481,385.667969 237.686264,391.129639 236.497635,395.883636 
	C236.085266,397.532959 230.767578,397.955841 226.972610,399.168152 
	C226.972610,396.007050 226.972610,394.216553 226.972610,391.938263 
z"/>
<path fill="#F6F6F6" opacity="1.000000" stroke="none" 
	d="
M236.528839,355.860718 
	C236.747253,357.583160 236.928635,358.905457 236.921127,360.226685 
	C236.880127,367.445618 235.053314,369.060120 227.242950,368.612457 
	C227.242950,363.203918 227.242950,357.772766 227.242950,351.831848 
	C230.796738,351.617554 234.669495,350.355316 236.528839,355.860718 
z"/>
<path fill="#F8F8F8" opacity="1.000000" stroke="none" 
	d="
M370.097839,369.634399 
	C370.073700,363.557098 370.073700,357.947937 370.073700,352.375854 
	C377.370056,350.260223 379.838837,351.947815 379.958069,359.030121 
	C379.985870,360.680237 379.984894,362.331970 379.948059,363.981873 
	C379.793854,370.887115 377.111359,372.552734 370.097839,369.634399 
z"/>
<path fill="#F3F3F3" opacity="1.000000" stroke="none" 
	d="
M189.027588,360.223999 
	C189.067398,358.426239 188.615051,356.757294 189.249786,355.843201 
	C190.519226,354.015137 192.157593,351.700989 194.055466,351.223114 
	C197.006241,350.480103 199.125351,352.599030 199.249176,355.772095 
	C199.482147,361.741302 199.532974,367.719116 199.574844,373.693909 
	C199.615601,379.507721 199.607895,385.323273 199.511215,391.136230 
	C199.447617,394.961945 198.939301,398.994446 193.924408,398.838165 
	C189.134293,398.688904 189.033783,394.698669 189.026993,391.094940 
	C189.007874,380.961395 189.024567,370.827789 189.027588,360.223999 
z"/>
<path fill="#EEEEEE" opacity="1.000000" stroke="none" 
	d="
M332.484680,386.548157 
	C333.372559,376.611176 334.630554,366.928192 335.888580,357.245178 
	C336.228180,357.247223 336.567810,357.249237 336.907440,357.251251 
	C338.354950,366.851044 339.802490,376.450836 341.363342,386.802124 
	C338.113647,386.802124 335.484253,386.802124 332.484680,386.548157 
z"/>
</svg>