<?xml version="1.0" encoding="UTF-8"?>
<svg data-bbox="523.6 724.135 1607.12 1329.13" height="2775" width="2775" viewBox="0 0 2775 2775" xmlns="http://www.w3.org/2000/svg" data-type="color">
    <g>
        <path d="M1149.7 1445c0-221.3 0-441.6-.1-661.9 0-8.2-1.1-16.5-1.2-24.8 0-5.3.6-10.6 1.3-15.8 1.3-8.9 4.5-12.2 13.4-13.2 4.7-.5 9.4-.2 14-.2 29.6.4 59.3.9 88.9 1.1 5.3.1 10.6-1.2 15.8-1 11.9.5 15.8 4.7 15.8 16.9.1 45.3.1 90.6.1 135.9 0 36.4.1 72.7 0 109-.5 148.6-1 297.2-1.2 445.8 0 15.8 1.6 31.7 3.9 47.4 4.5 31.1 28 51.9 59.5 55 17.5 1.7 34.4.6 50.5-6.9 19.1-9 28.5-25.4 33.3-44.8 4.4-18.1 4.8-36.7 4.1-55.3-.1-3.3-.1-6.7-.1-10 0-223.3 0-446.6-.2-669.9 0-17.9 4.5-24 24.4-23.3 24.3.8 48.5 1 72.8 1.2 8.3.1 16.6-.7 24.9-1.1 10.5-.6 18.3 4.1 18.4 17 .1 20.6 0 41.3 0 61.9 0 3.7-.3 7.4-.3 11 0 143.6-.1 287.3 0 430.9 0 23.7.4 47.3.7 70.9.3 31.6 1.7 63.3 1 94.8-.8 36.8-2.1 73.6-11.2 109.6-9.3 37.1-25.1 70.7-52.9 97.6-27.4 26.4-60.9 41.1-98 48.1-22.9 4.4-46.1 6.2-69.4 5.3-39.2-1.6-77.1-8.8-111.7-28.7-38.9-22.3-65.1-55-80.3-96.8-8.4-22.9-12.9-46.6-14.2-71-.7-11.2-1.4-22.5-2-34.7" fill="#010101" data-color="1"/>
        <path d="M2130.7 1149.9c-.3 1.9-.4 2.9-.4 3.9-.2 86.3-.5 172.6-.6 258.9 0 25.6.8 51.3.6 76.9-.4 38.4-5.6 76.1-18.6 112.5-8.7 24.2-20.6 46.8-37.8 66.2-1.3 1.5-2.4 3.3-4 4.4-4.4 3.1-9.4.8-10.1-4.6-.3-2.3-.1-4.6-.1-7v-439.9c0-2.3-.2-4.7.1-7 .8-7.8 4.3-12 12-13.9 3.2-.7 6.5-1.1 9.8-1.2 8.7-.1 17.3.2 26-.1 4.4-.2 8.8-1.2 15.4-2.2-3.7-4.5-5.7-7.3-8.1-9.8-30.2-29.6-60.7-58.9-90.7-88.7-39.3-39-78.3-78.2-117.4-117.3-3.1-3-6.3-6-9.8-8.4-7.2-4.9-9.9-4.7-17.1.6-2.9 2.2-5.6 4.7-8.2 7.3-19.8 19.7-39.5 39.6-59.4 59.3q-53.2 52.8-106.5 105.5c-14.2 14.1-28.6 27.9-42.8 41.9-2.5 2.5-4.6 5.4-8.1 9.7 4.7 1 7.6 2 10.6 2.1 10 .2 20 .1 30 .1 2.3 0 4.7-.2 7 .1 11.8 1.4 16.8 7 17.2 19.1v440.9c0 2.7.5 5.5-.2 8-.7 2.3-2.2 5.5-4 6-2.3.6-6.2-.3-7.7-2-6.6-7.8-13.2-15.8-18.8-24.5-18.6-28.9-28.8-61-34.7-94.7-7-39.8-6.2-80.1-5.9-120.3.2-31.6 1.2-63.2 1.2-94.8-.1-53.2-1-106.5-1.2-159.8-.2-48-.3-95.9 0-143.9.2-27.6.7-55.2 2.1-82.8 1.5-31.8 5-63.4 16.2-93.6 21.1-56.4 60.9-94 116.4-115.6 30.3-11.9 62-16.6 94.5-17 28.3-.3 56.5.2 84.3 6.6 42.3 9.8 79.8 28.6 110.1 60.4 22.5 23.6 37 51.6 45.8 82.8 7.1 25.4 9.1 51.4 10.7 77.6 3.2 53.9 1.2 107.8 1.9 161.7.1 11.9.4 23.8.3 36.6" fill="#010101" data-color="1"/>
        <path d="M794.3 1131c0-57.3-.1-113.6.1-169.9.1-24.3.8-48.6 1.2-72.8.1-2.7.2-5.4-.2-8-2-12.8-6.8-17.1-19.9-17.1-7.3-.1-14.6 1-21.9 1q-48.4.3-96.9 0c-14 0-18.5-4.7-18.3-18.7.3-26.6.9-53.2 1.2-79.8.1-7.2-1.2-14.5-1.2-21.8.1-11.7 3.7-16.3 15.2-16.5 21.6-.5 43.3.2 64.9.4 3 .1 6 .5 9 .5 94.3 0 188.5.1 282.8-.1 22.3 0 44.6-.7 66.9-1.1 2.3 0 4.7-.3 7 0 12.6 1.7 16.4 4.6 16.3 17.5q-.6 51 0 101.9c.1 12.3-3.1 17.4-17.9 17.7-16.3.3-32.7.2-49 .1-21.9-.3-43.9-.8-65.8-1.2-2.7 0-5.4-.2-8 .2-9.6 1.4-14.4 5.9-15.3 15.5-.8 9.2-.6 18.6-.7 27.9 0 4 .5 8 .5 12 0 242.2.1 484.5 0 726.7 0 6.3-.7 12.6-2.2 18.7-1.7 7.4-5.5 10.1-12.7 10.1-39 .2-78 .3-117 0-13.3-.1-17.7-5.2-18.1-18.4z" fill="#010101" data-color="1"/>
        <path d="M1968.3 1562.9c.5 17.6.9 34.2 1.4 50.8 0 2 .1 4-.1 5.9-.6 11.4-4.7 15.5-16.2 15.4-11.9 0-23.9-.7-35.9-.6-28.3.1-56.5.4-84.8.7h-6c-12-.3-16.1-4.2-16.3-16.4-.3-13-.2-26-.1-39 .4-40.5 1.2-81.1 1.3-121.7 0-32.2-.9-64.5-1.2-96.7-.1-3.3.2-6.7 1-9.9 1.7-7.1 4.9-10.1 12.3-10.8 4.6-.5 9.3-.3 13.9-.3h109.8c19.7 0 22.4 2.5 22.2 22.3-.1 14.6-1.2 29.2-1.2 43.8.2 31.9 1.1 63.8 1.2 95.7 0 20-.8 39.9-1.3 60.8" fill="#020202" data-color="2"/>
        <path d="M747.6 2025v-160c-11.7 61-20 122.5-30 185.2q-10.8.1-21.6.1h-21.8c-10.4-62.3-20.7-124.1-30.9-185.9h-1.5v185.4h-41v-288.3h64c10.4 63.9 20.9 127.7 31.3 191.5h2.5c5.6-31.6 9.7-63.5 14.8-95.3 5.1-32 9.6-64.1 14.4-96.3H791v288.2h-43.4z" fill="#040404" data-color="3"/>
        <path d="M921.9 1946.9c9.4-61.7 18.8-123.5 28.2-185.5h62.9v288.2h-42.3v-189.3q-1-.1-2-.1c-9.5 62.9-19.1 125.8-28.8 190.1-14.3 0-28.4.1-43.6-.1-10.1-61.2-20.2-122-30.3-182.8l-2.2.2v182.2h-39.4v-288.1H887c10.3 62.4 20.5 125 30.8 189.2.3 3.4.4 5.2.6 7.1q.9.1 1.9.2.8-5.6 1.6-11.3" fill="#040404" data-color="3"/>
        <path d="M1208.3 1971v-209.4c3.2-.2 5.7-.5 8.3-.5 21.3 0 42.6-.3 63.9.1 8.2.2 16.5 1.6 24.5 3.5 21 5 32.8 19.2 37.2 39.7 3.7 17.1 3 34.5 1.1 51.6-1.8 17.3-7.5 25.2-25.2 40.3 22 10 29.3 28.8 30.1 51 .6 15.2.9 30.5 0 45.6-2.1 33.3-23 54.3-57 56-24.6 1.3-49.2 1-73.8 1.4h-9.1zm53-50.7c-2.2.3-4.4.6-6.4.8v87.6c10-.6 19.6-.8 29.1-1.7 10.8-1 17.5-7 18-17.7.6-16 .7-32-.3-47.9-.8-12.5-8-18.8-20.6-20.3-5.9-.7-12-.6-19.8-.8m34.3-105.1c-2.9-8-9.4-11.2-17-11.9-7.8-.7-15.7-.1-23.7-.1v75c7.5 0 14.5.5 21.3-.2 11.8-1.1 19.6-7 21-17.8 1.9-14.4 2.8-29.1-1.6-45" fill="#030303" data-color="4"/>
        <path d="M1970.5 1936.7c1.9 12.9 4.1 25 5 37.1.8 11.3.1 22.7.2 34 0 13.8-1.2 27.8 4.3 41.9h-46.8c-4.4-10.2-4.4-21.3-4.7-32-.6-18 0-36-.3-54 0-4.9-.6-10-2.2-14.6-3.6-10.8-11.1-15.8-22.5-16-6-.1-11.9 0-18.8 0v116.6h-45.8v-288.6h8.9c20.6 0 41.3-.2 61.9.1 7.6.1 15.3.9 22.7 2.5 23.9 5.2 38.1 21 40.5 44.6 2.2 20.3 1.4 41.2-.2 61.7-1.2 16.2-10.1 29.3-25.3 38.2 10.6 7.1 20 14.9 23.1 28.5m-85.8-48c8.8.2 17.7 1.4 26.4.3 9-1.1 15.5-7.5 16-16.6.9-17.2 1.3-34.5.1-51.7-.8-10.9-7.9-16.5-18.6-17.4-7.8-.7-15.7-.1-24.2-.1 0 28.6 0 56.2.3 85.5" fill="#040404" data-color="3"/>
        <path d="M1180.3 1975c-.8 10.5-.9 20.2-2.7 29.6-4.5 24.7-22.3 41.8-47.1 46.6-15.9 3.1-31.7 3-47.2-2.3-19.4-6.5-32-19.9-37.3-39.5-2.2-8.3-3.5-17-3.5-25.5-.3-53-.3-105.9 0-158.9 0-7.2 1-14.6 2.9-21.5 7.4-26.9 25.5-42 53.4-44.7 11.5-1.1 23.1-1.2 34.7 1.6 25 6.1 39.1 22.6 44.4 47 1.7 8 2.3 16.4 2.3 24.7.3 47.3.1 94.6.1 142.9m-92-37c0 15.3-.1 30.6.1 45.9.1 4 .8 7.9 1.6 11.8 2.2 11.1 12.7 15.2 20.7 15.4 10.1.2 18.8-5.3 21.3-14.6 1.6-6 2.2-12.4 2.2-18.6.2-48.3.2-96.6.1-144.9 0-4-.2-8-.7-11.9-1.4-12.6-8.7-20.1-20-20.8-15.2-1-22.9 6.9-24.2 18-.4 3.6-1 7.2-1 10.8-.1 35.6-.1 71.3-.1 108.9" fill="#030303" data-color="4"/>
        <path d="M1676.2 2050.3h-17c15.5-97 30.8-192.9 46.2-289h67.2c15.3 95.8 30.6 191.7 46.1 288.3h-46.6q-3.9-25.5-8.1-52.2h-54.1c-2.6 17.1-5.3 34.3-8.2 52.9zm54.2-193.6c-4.8 33.2-9.6 66.4-14.6 100.4 14.3 0 28 .2 42-.2-6.8-44.9-13.3-88.3-19.8-131.8h-2.4c-1.5 9.9-3 19.9-5.2 31.6" fill="#030303" data-color="4"/>
        <path d="M2003.6 2011v-249.3h123.5v41.2h-76.9v79.4h61.1v41.6h-61.1v84.4h77.1v41.3h-123.7z" fill="#030404" data-color="5"/>
        <path d="M657.9 1632.2h67.3v42.2H602.8v-292.8h46.7v250.3c3 .1 5.2.2 8.4.3" fill="#050404" data-color="6"/>
        <path d="M1455 2049.6c-1-2.8-1.3-5.1-1.3-7.4q-.1-137-.1-274v-6.5h45.8v246.4h73.8v40.7c-.2.2-.4.4-.7.6-.2.2-.5.6-.8.6-38.6.1-77.3.1-116.7-.4" fill="#030404" data-color="5"/>
        <path d="M570.3 1658.9v15.6h-46.1v-292.9h46.1z" fill="#000000" data-color="7"/>
        <path d="M1375.6 1777.1v-15.4h45.5v288.6h-45.5z" fill="#040404" data-color="3"/>
        <path d="M1593.6 1939v-177.3h45.5v287.9h-45.5z" fill="#040404" data-color="3"/>
        <path d="M523.6 1993v-231.3h45.5v287.9h-45.5z" fill="#040404" data-color="3"/>
        <path d="M921.4 1947.3c-.1 3.4-.6 7.2-1.1 10.9q-1-.1-1.9-.2c-.2-1.9-.3-3.7-.4-6.3 1.1-1.9 2-3 3.4-4.4" fill="#bbafaf" data-color="8"/>
    </g>
</svg>
